<mxfile host="app.diagrams.net" modified="2021-10-09T03:17:59.000Z" agent="5.0 (Windows NT 10.0; Win64; x64) AppleWebKit/537.36 (KHTML, like Gecko) Chrome/94.0.4606.71 Safari/537.36" etag="_IbCchw_AX3IlICRD527" version="15.1.0" type="github" pages="2">
  <diagram id="C5RBs43oDa-KdzZeNtuy" name="Page-1">
    <mxGraphModel dx="877" dy="496" grid="1" gridSize="10" guides="1" tooltips="1" connect="1" arrows="1" fold="1" page="1" pageScale="1" pageWidth="1654" pageHeight="2336" background="#F1FAEE" math="0" shadow="0">
      <root>
        <mxCell id="WIyWlLk6GJQsqaUBKTNV-0" />
        <mxCell id="WIyWlLk6GJQsqaUBKTNV-1" parent="WIyWlLk6GJQsqaUBKTNV-0" />
        <mxCell id="t_P3fKUWRtbH0j2EnG3h-17" value="" style="edgeStyle=orthogonalEdgeStyle;orthogonalLoop=1;jettySize=auto;html=1;shadow=0;labelBackgroundColor=none;fontColor=#1D3557;endArrow=block;endFill=0;endSize=8;strokeColor=#457B9D;strokeWidth=1;curved=1;sketch=1;" edge="1" parent="WIyWlLk6GJQsqaUBKTNV-1" source="WIyWlLk6GJQsqaUBKTNV-3">
          <mxGeometry relative="1" as="geometry">
            <mxPoint x="845" y="160" as="targetPoint" />
          </mxGeometry>
        </mxCell>
        <mxCell id="WIyWlLk6GJQsqaUBKTNV-3" value="&lt;font face=&quot;Times New Roman&quot;&gt;羽流和热气流相互作用&lt;/font&gt;" style="whiteSpace=wrap;html=1;fontSize=12;glass=0;strokeWidth=1;shadow=0;fillColor=#A8DADC;strokeColor=#457B9D;fontColor=#1D3557;sketch=1;" parent="WIyWlLk6GJQsqaUBKTNV-1" vertex="1">
          <mxGeometry x="785" y="50" width="120" height="40" as="geometry" />
        </mxCell>
        <mxCell id="WIyWlLk6GJQsqaUBKTNV-5" value="影响小" style="edgeStyle=orthogonalEdgeStyle;html=1;jettySize=auto;orthogonalLoop=1;fontSize=11;endArrow=block;endFill=0;endSize=8;strokeWidth=1;shadow=0;labelBackgroundColor=none;strokeColor=#457B9D;fontColor=#1D3557;curved=1;sketch=1;" parent="WIyWlLk6GJQsqaUBKTNV-1" source="WIyWlLk6GJQsqaUBKTNV-6" target="WIyWlLk6GJQsqaUBKTNV-7" edge="1">
          <mxGeometry y="10" relative="1" as="geometry">
            <mxPoint as="offset" />
          </mxGeometry>
        </mxCell>
        <mxCell id="WIyWlLk6GJQsqaUBKTNV-6" value="验证在热气流的作用下羽流的速度是否有很大的影响" style="rhombus;whiteSpace=wrap;html=1;shadow=0;fontFamily=Helvetica;fontSize=12;align=center;strokeWidth=1;spacing=6;spacingTop=-4;fillColor=#A8DADC;strokeColor=#457B9D;fontColor=#1D3557;sketch=1;" parent="WIyWlLk6GJQsqaUBKTNV-1" vertex="1">
          <mxGeometry x="792.5" y="290" width="110" height="110" as="geometry" />
        </mxCell>
        <mxCell id="WIyWlLk6GJQsqaUBKTNV-7" value="与纯羽流的速度公式对应，羽流和热气流追逐的情况" style="whiteSpace=wrap;html=1;fontSize=12;glass=0;strokeWidth=1;shadow=0;fillColor=#A8DADC;strokeColor=#457B9D;fontColor=#1D3557;sketch=1;" parent="WIyWlLk6GJQsqaUBKTNV-1" vertex="1">
          <mxGeometry x="970" y="325" width="120" height="40" as="geometry" />
        </mxCell>
        <mxCell id="WIyWlLk6GJQsqaUBKTNV-8" value="影响大" style="html=1;jettySize=auto;orthogonalLoop=1;fontSize=11;endArrow=block;endFill=0;endSize=8;strokeWidth=1;shadow=0;labelBackgroundColor=none;edgeStyle=orthogonalEdgeStyle;strokeColor=#457B9D;fontColor=#1D3557;curved=1;sketch=1;" parent="WIyWlLk6GJQsqaUBKTNV-1" source="WIyWlLk6GJQsqaUBKTNV-6" target="WIyWlLk6GJQsqaUBKTNV-11" edge="1">
          <mxGeometry x="-0.1429" y="25" relative="1" as="geometry">
            <mxPoint as="offset" />
            <mxPoint x="845" y="540" as="sourcePoint" />
            <Array as="points">
              <mxPoint x="845" y="500" />
            </Array>
          </mxGeometry>
        </mxCell>
        <mxCell id="WIyWlLk6GJQsqaUBKTNV-11" value="与纯羽流速度曲线的差异可能发生在尾迹和与热气流相碰时" style="whiteSpace=wrap;html=1;fontSize=12;glass=0;strokeWidth=1;shadow=0;fillColor=#A8DADC;strokeColor=#457B9D;fontColor=#1D3557;sketch=1;" parent="WIyWlLk6GJQsqaUBKTNV-1" vertex="1">
          <mxGeometry x="775" y="460" width="145" height="43.48" as="geometry" />
        </mxCell>
        <mxCell id="imjWjZcPQevqlWEwWaZw-9" value="相碰时的差异与热气流和&lt;br&gt;羽流的相互作用有关" style="html=1;jettySize=auto;orthogonalLoop=1;fontSize=11;endArrow=block;endFill=0;endSize=8;strokeWidth=1;shadow=0;labelBackgroundColor=none;edgeStyle=orthogonalEdgeStyle;strokeColor=#457B9D;fontColor=#1D3557;exitX=0.75;exitY=1;exitDx=0;exitDy=0;entryX=0.5;entryY=0;entryDx=0;entryDy=0;curved=1;sketch=1;" parent="WIyWlLk6GJQsqaUBKTNV-1" source="WIyWlLk6GJQsqaUBKTNV-11" target="VcnlkV_oTQZqw5gRQqVt-0" edge="1">
          <mxGeometry x="0.4886" y="15" relative="1" as="geometry">
            <mxPoint as="offset" />
            <mxPoint x="825" y="510" as="sourcePoint" />
            <mxPoint x="1020" y="580" as="targetPoint" />
          </mxGeometry>
        </mxCell>
        <mxCell id="imjWjZcPQevqlWEwWaZw-10" value="尾迹的差异&lt;span style=&quot;font-size: 12px&quot;&gt;与热气流留下&lt;br&gt;的部分热量尾茎有关&lt;/span&gt;" style="html=1;jettySize=auto;orthogonalLoop=1;fontSize=11;endArrow=block;endFill=0;endSize=8;strokeWidth=1;shadow=0;labelBackgroundColor=none;edgeStyle=orthogonalEdgeStyle;strokeColor=#457B9D;fontColor=#1D3557;exitX=0.25;exitY=1;exitDx=0;exitDy=0;entryX=0.25;entryY=1;entryDx=0;entryDy=0;curved=1;sketch=1;" parent="WIyWlLk6GJQsqaUBKTNV-1" source="WIyWlLk6GJQsqaUBKTNV-11" edge="1">
          <mxGeometry x="0.535" y="-20" relative="1" as="geometry">
            <mxPoint as="offset" />
            <mxPoint x="885" y="510" as="sourcePoint" />
            <mxPoint x="680" y="580" as="targetPoint" />
          </mxGeometry>
        </mxCell>
        <mxCell id="imjWjZcPQevqlWEwWaZw-11" value="与热气流留下的部分热量尾茎有关" style="whiteSpace=wrap;html=1;fontColor=#1D3557;strokeColor=#457B9D;fillColor=#A8DADC;sketch=1;" parent="WIyWlLk6GJQsqaUBKTNV-1" vertex="1">
          <mxGeometry x="620" y="580" width="120" height="60" as="geometry" />
        </mxCell>
        <mxCell id="VcnlkV_oTQZqw5gRQqVt-4" value="" style="edgeStyle=orthogonalEdgeStyle;orthogonalLoop=1;jettySize=auto;html=1;labelBackgroundColor=none;fontColor=#1D3557;endArrow=block;endFill=0;strokeColor=#457B9D;fillColor=#A8DADC;curved=1;sketch=1;" parent="WIyWlLk6GJQsqaUBKTNV-1" source="VcnlkV_oTQZqw5gRQqVt-0" target="VcnlkV_oTQZqw5gRQqVt-3" edge="1">
          <mxGeometry relative="1" as="geometry" />
        </mxCell>
        <mxCell id="VcnlkV_oTQZqw5gRQqVt-0" value="与羽流碰撞前的热气流有关" style="whiteSpace=wrap;html=1;fontColor=#1D3557;strokeColor=#457B9D;fillColor=#A8DADC;sketch=1;" parent="WIyWlLk6GJQsqaUBKTNV-1" vertex="1">
          <mxGeometry x="960" y="580" width="120" height="60" as="geometry" />
        </mxCell>
        <mxCell id="VcnlkV_oTQZqw5gRQqVt-1" value="热气流的尾迹和&lt;br&gt;热气流的涡量比例的影响" style="html=1;jettySize=auto;orthogonalLoop=1;fontSize=11;endArrow=block;endFill=0;endSize=8;strokeWidth=1;shadow=0;labelBackgroundColor=none;edgeStyle=orthogonalEdgeStyle;strokeColor=#457B9D;fontColor=#1D3557;curved=1;sketch=1;" parent="WIyWlLk6GJQsqaUBKTNV-1" edge="1">
          <mxGeometry x="-0.2" y="80" relative="1" as="geometry">
            <mxPoint as="offset" />
            <mxPoint x="680" y="640" as="sourcePoint" />
            <mxPoint x="680" y="740" as="targetPoint" />
            <Array as="points">
              <mxPoint x="680" y="680" />
              <mxPoint x="680" y="680" />
            </Array>
          </mxGeometry>
        </mxCell>
        <mxCell id="VcnlkV_oTQZqw5gRQqVt-2" value="是否可以通过比例将尾迹的影响考虑在内，从而得到尾迹影响下的速度公式" style="whiteSpace=wrap;html=1;fontColor=#1D3557;strokeColor=#457B9D;fillColor=#A8DADC;sketch=1;" parent="WIyWlLk6GJQsqaUBKTNV-1" vertex="1">
          <mxGeometry x="620" y="720" width="120" height="60" as="geometry" />
        </mxCell>
        <mxCell id="VcnlkV_oTQZqw5gRQqVt-3" value="这个两者作用下的影响作用还未知" style="whiteSpace=wrap;html=1;fontColor=#1D3557;strokeColor=#457B9D;fillColor=#A8DADC;sketch=1;" parent="WIyWlLk6GJQsqaUBKTNV-1" vertex="1">
          <mxGeometry x="960" y="720" width="120" height="60" as="geometry" />
        </mxCell>
        <mxCell id="t_P3fKUWRtbH0j2EnG3h-19" value="" style="edgeStyle=orthogonalEdgeStyle;orthogonalLoop=1;jettySize=auto;html=1;shadow=0;labelBackgroundColor=none;fontColor=#1D3557;endArrow=block;endFill=0;endSize=8;strokeColor=#457B9D;strokeWidth=1;curved=1;sketch=1;" edge="1" parent="WIyWlLk6GJQsqaUBKTNV-1" source="t_P3fKUWRtbH0j2EnG3h-4">
          <mxGeometry relative="1" as="geometry">
            <mxPoint x="845" y="290" as="targetPoint" />
          </mxGeometry>
        </mxCell>
        <mxCell id="t_P3fKUWRtbH0j2EnG3h-21" value="" style="edgeStyle=orthogonalEdgeStyle;orthogonalLoop=1;jettySize=auto;html=1;shadow=0;labelBackgroundColor=none;fontColor=#1D3557;endArrow=block;endFill=0;endSize=8;strokeColor=#457B9D;strokeWidth=1;curved=1;sketch=1;" edge="1" parent="WIyWlLk6GJQsqaUBKTNV-1" source="t_P3fKUWRtbH0j2EnG3h-4" target="t_P3fKUWRtbH0j2EnG3h-20">
          <mxGeometry relative="1" as="geometry" />
        </mxCell>
        <mxCell id="t_P3fKUWRtbH0j2EnG3h-4" value="分析纯羽流热气流分开和羽流追热气流的情况下，热气流和羽流的速度" style="whiteSpace=wrap;html=1;shadow=0;fontColor=#1D3557;strokeColor=#457B9D;strokeWidth=1;fillColor=#A8DADC;spacing=6;spacingTop=-4;sketch=1;" vertex="1" parent="WIyWlLk6GJQsqaUBKTNV-1">
          <mxGeometry x="760" y="160" width="170" height="60" as="geometry" />
        </mxCell>
        <mxCell id="t_P3fKUWRtbH0j2EnG3h-23" value="" style="edgeStyle=orthogonalEdgeStyle;orthogonalLoop=1;jettySize=auto;html=1;shadow=0;labelBackgroundColor=none;fontColor=#1D3557;endArrow=block;endFill=0;endSize=8;strokeColor=#457B9D;strokeWidth=1;curved=1;sketch=1;" edge="1" parent="WIyWlLk6GJQsqaUBKTNV-1" source="t_P3fKUWRtbH0j2EnG3h-20" target="t_P3fKUWRtbH0j2EnG3h-22">
          <mxGeometry relative="1" as="geometry" />
        </mxCell>
        <mxCell id="t_P3fKUWRtbH0j2EnG3h-20" value="涡量比温度更容易区分纯羽流的生成？" style="ellipse;whiteSpace=wrap;html=1;shadow=0;fontColor=#1D3557;strokeColor=#457B9D;strokeWidth=1;fillColor=#A8DADC;spacing=6;spacingTop=-4;sketch=1;" vertex="1" parent="WIyWlLk6GJQsqaUBKTNV-1">
          <mxGeometry x="1035" y="160" width="120" height="60" as="geometry" />
        </mxCell>
        <mxCell id="t_P3fKUWRtbH0j2EnG3h-22" value="没有生成涡量的数据文件，还是用温度、" style="ellipse;whiteSpace=wrap;html=1;shadow=0;fontColor=#1D3557;strokeColor=#457B9D;strokeWidth=1;fillColor=#A8DADC;spacing=6;spacingTop=-4;sketch=1;" vertex="1" parent="WIyWlLk6GJQsqaUBKTNV-1">
          <mxGeometry x="1235" y="160" width="120" height="60" as="geometry" />
        </mxCell>
      </root>
    </mxGraphModel>
  </diagram>
  <diagram id="-VfU3PA-5Ooow9AQVcGZ" name="第 2 页">
    <mxGraphModel dx="1052" dy="595" grid="1" gridSize="10" guides="1" tooltips="1" connect="1" arrows="1" fold="1" page="1" pageScale="1" pageWidth="1654" pageHeight="1169" math="0" shadow="0">
      <root>
        <mxCell id="TWEdjQajlQbPpBjL3Qbx-0" />
        <mxCell id="TWEdjQajlQbPpBjL3Qbx-1" parent="TWEdjQajlQbPpBjL3Qbx-0" />
        <mxCell id="FGsNUzey4x6Smrw8-Mty-0" value="" style="rounded=0;whiteSpace=wrap;html=1;sketch=1;fontColor=#1D3557;strokeColor=#457B9D;fillColor=#A8DADC;" vertex="1" parent="TWEdjQajlQbPpBjL3Qbx-1">
          <mxGeometry x="70" y="10" width="980" height="580" as="geometry" />
        </mxCell>
      </root>
    </mxGraphModel>
  </diagram>
</mxfile>
